<?xml version="1.0" encoding="utf-8"?><!-- Uploaded to: SVG Repo, www.svgrepo.com, Generator: SVG Repo Mixer Tools -->
<svg fill="#000000" width="800px" height="800px" viewBox="0 0 24 24" id="file-code-4" data-name="Flat Line" xmlns="http://www.w3.org/2000/svg" class="icon flat-line"><path id="secondary" d="M8,19.5A7.5,7.5,0,0,1,15.5,12a7.41,7.41,0,0,1,1.5.15V7L13,3H4A1,1,0,0,0,3,4V20a1,1,0,0,0,1,1H8.15A7.41,7.41,0,0,1,8,19.5Z" style="fill: rgb(44, 169, 188); stroke-width: 2;"></path><polyline id="primary" points="19 21 21 19 19 17" style="fill: none; stroke: rgb(0, 0, 0); stroke-linecap: round; stroke-linejoin: round; stroke-width: 2;"></polyline><polyline id="primary-2" data-name="primary" points="15 17 13 19 15 21" style="fill: none; stroke: rgb(0, 0, 0); stroke-linecap: round; stroke-linejoin: round; stroke-width: 2;"></polyline><path id="primary-3" data-name="primary" d="M7,13H8M7,9h6" style="fill: none; stroke: rgb(0, 0, 0); stroke-linecap: round; stroke-linejoin: round; stroke-width: 2;"></path><path id="primary-4" data-name="primary" d="M9,21H4a1,1,0,0,1-1-1V4A1,1,0,0,1,4,3h9l4,4v6" style="fill: none; stroke: rgb(0, 0, 0); stroke-linecap: round; stroke-linejoin: round; stroke-width: 2;"></path></svg>